#!OML:ASF E:\inclinewalkrobotboard\Project 1\Capture day 1\Session 1\subject1.ASF
:FULLY-SPECIFIED
:DEGREES
161
root 10.865 17.3097 25.4942 -170.363 0.910318 172.46
lowerback -1.2693 2.19525 -1.56096
upperback 2.98789 3.01547 1.92277
thorax 3.60414 1.46829 2.98688
lowerneck -6.82006 0.580794 -2.18901
upperneck 29.3356 -0.870917 -2.18063
head 10.4865 -1.81773 -0.66694
rclavicle 1.19271e-015 1.59028e-014
rhumerus -11.6539 -23.686 -75.745
rradius 18.4326
rwrist 23.8126
rhand -11.6198 -39.7742
rfingers 7.12502
rthumb 14.4234 -69.253
lclavicle 1.19271e-015 1.59028e-014
lhumerus -43.2611 18.6583 65.7734
lradius 13.4806
lwrist -36.6568
lhand -20.3394 -21.3376
lfingers 7.12502
lthumb 6.01217 8.55707
rfemur -5.60727 10.0212 7.79241
rtibia 12.6519
rfoot -19.6323 -7.24214
rtoes -33.2902
lfemur -24.8255 -10.2747 -8.69055
ltibia 11.6724
lfoot -11.1248 9.78607
ltoes -61.9958
162
root 10.8071 17.2791 25.3549 -170.449 0.985772 172.891
lowerback -1.32936 2.47569 -1.63906
upperback 3.00008 3.39287 1.79244
thorax 3.63082 1.65365 2.91362
lowerneck -6.95564 0.561378 -2.27616
upperneck 29.2936 -0.863985 -2.07214
head 10.4983 -1.79684 -0.61041
rclavicle -1.94809e-014 -4.77083e-015
rhumerus -11.1895 -22.1485 -76.9705
rradius 18.7507
rwrist 22.8485
rhand -11.3219 -38.9738
rfingers 7.12502
rthumb 14.7103 -68.4319
lclavicle -1.94809e-014 -4.77083e-015
lhumerus -43.9923 19.7368 64.7489
lradius 13.2068
lwrist -38.0905
lhand -20.2358 -21.0275
lfingers 7.12502
lthumb 6.11221 8.86428
rfemur -5.00091 10.1087 8.15561
rtibia 12.6792
rfoot -20.2065 -7.18971
rtoes -33.0567
lfemur -25.3411 -10.3232 -8.24479
ltibia 11.5333
lfoot -10.4726 10.1711
ltoes -62.2863
163
root 10.7373 17.2372 25.2012 -170.358 1.07442 173.101
lowerback -1.6919 2.78088 -1.86385
upperback 2.97136 3.80819 1.49552
thorax 3.78647 1.84993 2.76855
lowerneck -7.15246 0.495326 -2.34563
upperneck 29.4125 -0.996421 -1.79189
head 10.5833 -1.8272 -0.515148
rclavicle 6.16232e-014 9.54166e-015
rhumerus -10.8367 -20.9171 -78.2124
rradius 19.0311
rwrist 22.0944
rhand -11.1297 -38.319
rfingers 7.12502
rthumb 14.8956 -67.7635
lclavicle 6.16232e-014 9.54166e-015
lhumerus -44.6861 21.0553 63.304
lradius 12.7746
lwrist -39.8716
lhand -20.4908 -20.334
lfingers 7.12502
lthumb 5.86598 9.56476
rfemur -4.43453 9.87768 8.13256
rtibia 12.5695
rfoot -20.7592 -6.99706
rtoes -33.6557
lfemur -25.8869 -10.2974 -8.14725
ltibia 11.2695
lfoot -9.74759 10.3421
ltoes -62.4956
164
root 10.6569 17.195 25.0419 -170.297 1.09375 173.5
lowerback -1.93934 3.10196 -1.85843
upperback 2.80706 4.234 1.19946
thorax 3.75275 2.06177 2.48735
lowerneck -6.88548 0.377527 -2.29104
upperneck 29.4444 -1.27292 -1.55355
head 10.5441 -1.92621 -0.467641
rclavicle 4.17448e-014 4.77083e-015
rhumerus -10.9632 -19.5028 -79.3396
rradius 19.4948
rwrist 21.2296
rhand -11.2029 -37.9841
rfingers 7.12502
rthumb 14.825 -67.4338
lclavicle 4.17448e-014 4.77083e-015
lhumerus -45.5397 22.1511 61.7372
lradius 12.2698
lwrist -41.4241
lhand -21.0982 -19.9999
lfingers 7.12502
lthumb 5.27953 9.91432
rfemur -3.72495 9.54493 8.32868
rtibia 12.3788
rfoot -21.2784 -6.70425
rtoes -34.5553
lfemur -26.3512 -10.1577 -7.99207
ltibia 11.0859
lfoot -9.17726 10.3714
ltoes -62.7683
165
root 10.5711 17.153 24.8843 -170.232 1.19864 174.018
lowerback -2.02315 3.09714 -2.02074
upperback 2.9153 4.24008 1.20344
thorax 3.90074 2.05811 2.59203
lowerneck -7.66096 0.500682 -2.83851
upperneck 29.5504 -0.927467 -1.42957
head 10.7402 -1.79382 -0.296478
rclavicle -2.54444e-014 -1.43125e-014
rhumerus -10.1697 -16.9628 -80.6354
rradius 19.7931
rwrist 20.2142
rhand -11.327 -37.6292
rfingers 7.12502
rthumb 14.7055 -67.0876
lclavicle -2.54444e-014 -1.43125e-014
lhumerus -46.4562 24.3889 60.3188
lradius 11.9122
lwrist -42.5113
lhand -21.4657 -20.243
lfingers 7.12502
lthumb 4.92471 9.67978
rfemur -3.07992 9.32637 8.64827
rtibia 12.2306
rfoot -21.7441 -6.3322
rtoes -34.8988
lfemur -26.793 -9.99445 -7.7342
ltibia 11.1075
lfoot -8.97542 10.473
ltoes -62.9025
166
root 10.4793 17.1098 24.7099 -170.269 1.67708 174.386
lowerback -2.11317 3.37468 -2.31288
upperback 2.92303 4.6279 0.973337
thorax 3.93425 2.24321 2.54137
lowerneck -7.95435 0.497749 -3.01254
upperneck 29.5271 -0.907732 -1.17313
head 10.7911 -1.75743 -0.171127
rclavicle -2.90226e-014 2.06736e-014
rhumerus -9.99343 -15.1581 -81.751
rradius 20.2399
rwrist 19.1705
rhand -11.4339 -37.6735
rfingers 7.12502
rthumb 14.6025 -67.1394
lclavicle -2.90226e-014 2.06736e-014
lhumerus -47.0794 25.3162 59.3943
lradius 11.6293
lwrist -42.8461
lhand -21.514 -20.2537
lfingers 7.12502
lthumb 4.87801 9.67019
rfemur -2.39953 9.41628 8.69178
rtibia 12.0803
rfoot -22.1056 -5.93938
rtoes -35.3904
lfemur -26.7943 -10.017 -7.63878
ltibia 10.9659
lfoot -9.06984 10.9276
ltoes -62.769
167
root 10.3858 17.0654 24.5277 -170.277 2.04075 174.814
lowerback -2.25456 3.61411 -2.63836
upperback 2.84543 4.96471 0.742362
thorax 3.90782 2.40281 2.50592
lowerneck -7.97313 0.493954 -3.16186
upperneck 29.4286 -0.952353 -0.812744
head 10.7594 -1.74008 -0.0172579
rclavicle 5.26779e-014 6.36111e-015
rhumerus -10.0516 -13.5856 -82.7842
rradius 20.7012
rwrist 18.2335
rhand -11.5127 -38.2103
rfingers 7.12502
rthumb 14.5266 -67.6817
lclavicle 5.26779e-014 6.36111e-015
lhumerus -47.9895 26.5185 57.875
lradius 11.2792
lwrist -43.9074
lhand -21.5742 -20.5484
lfingers 7.12502
lthumb 4.81989 9.37674
rfemur -1.60838 9.73535 8.9067
rtibia 11.8507
rfoot -22.4455 -5.9529
rtoes -36.3011
lfemur -26.8085 -9.74669 -7.62506
ltibia 10.9475
lfoot -8.84312 10.9708
ltoes -62.6381
168
root 10.2841 17.0226 24.3376 -170.264 2.33932 175.393
lowerback -2.34262 4.44499 -2.39702
upperback 2.35008 6.06386 -0.0222343
thorax 3.48498 2.97157 1.62185
lowerneck -6.63344 0.00933817 -2.11336
upperneck 29.0507 -2.09289 -0.248139
head 10.3615 -2.09343 -0.104696
rclavicle -3.00165e-014 3.57812e-014
rhumerus -11.3316 -14.5994 -83.6218
rradius 21.3325
rwrist 17.7092
rhand -11.6637 -38.4001
rfingers 7.12502
rthumb 14.381 -67.8819
lclavicle -3.00165e-014 3.57812e-014
lhumerus -47.9957 25.2828 56.7278
lradius 10.89
lwrist -44.5707
lhand -21.2666 -21.4396
lfingers 7.12502
lthumb 5.1169 8.47865
rfemur -0.76537 10.1317 9.33534
rtibia 11.6018
rfoot -22.8359 -6.19509
rtoes -37.2756
lfemur -26.848 -9.53891 -7.51137
ltibia 11.0188
lfoot -8.54039 11.0978
ltoes -62.5888
169
root 10.1781 16.9787 24.1403 -170.161 2.85407 175.945
lowerback -2.57666 4.54114 -2.86168
upperback 2.39225 6.22708 -0.163425
thorax 3.6216 3.04022 1.76236
lowerneck -7.21696 0.0716522 -2.45726
upperneck 28.9348 -1.93539 0.125945
head 10.4374 -1.98376 0.104337
rclavicle 5.36719e-014 1.82882e-014
rhumerus -10.8951 -13.1115 -84.6069
rradius 21.5248
rwrist 16.9404
rhand -11.7244 -38.4639
rfingers 7.12502
rthumb 14.3226 -67.9499
lclavicle 5.36719e-014 1.82882e-014
lhumerus -48.844 27.1935 54.9401
lradius 10.6581
lwrist -45.8165
lhand -20.3665 -20.721
lfingers 7.12502
lthumb 5.98597 9.17443
rfemur -0.179478 10.5158 9.63753
rtibia 11.5469
rfoot -23.2397 -6.40189
rtoes -38.3215
lfemur -26.8376 -9.29601 -7.43443
ltibia 11.7556
lfoot -8.95561 11.0233
ltoes -62.5282
170
root 10.0658 16.9317 23.9342 -169.957 3.52881 176.513
lowerback -2.96144 4.41311 -3.5851
upperback 2.41821 6.10241 -0.109529
thorax 3.79274 2.95305 2.24271
lowerneck -7.92539 0.310628 -3.18586
upperneck 28.8268 -1.43416 0.468619
head 10.5353 -1.76289 0.406897
rclavicle 1.03368e-014 8.74653e-015
rhumerus -10.5285 -10.8814 -85.4015
rradius 21.6605
rwrist 16.2858
rhand -11.5843 -38.4114
rfingers 7.12502
rthumb 14.4575 -67.8878
lclavicle 1.03368e-014 8.74653e-015
lhumerus -50.5947 30.0102 52.412
lradius 10.4227
lwrist -47.7154
lhand -19.5359 -18.878
lfingers 7.12502
lthumb 6.78788 10.9932
rfemur 0.19697 10.832 9.82647
rtibia 11.6388
rfoot -23.6522 -6.30857
rtoes -38.6181
lfemur -26.7083 -8.89642 -7.41496
ltibia 12.2391
lfoot -9.19863 10.9877
ltoes -62.4237
171
root 9.9419 16.8823 23.7193 -169.715 4.33662 177.183
lowerback -3.30966 4.93902 -3.77856
upperback 2.08493 6.83695 -0.660798
thorax 3.64389 3.32665 1.8353
lowerneck -7.65061 0.0293303 -2.63199
upperneck 28.4595 -2.06993 1.07793
head 10.358 -1.90858 0.465507
rclavicle 6.66923e-014 -1.11319e-014
rhumerus -11.3152 -11.2399 -86.1031
rradius 22.1696
rwrist 16.1492
rhand -11.3988 -38.1763
rfingers 7.12502
rthumb 14.6363 -67.6398
lclavicle 6.66923e-014 -1.11319e-014
lhumerus -49.9375 28.6396 52.8481
lradius 9.96363
lwrist -46.761
lhand -19.501 -18.1662
lfingers 7.12502
lthumb 6.82151 11.7039
rfemur 0.495852 11.1737 10.0099
rtibia 11.7819
rfoot -24.1829 -5.86604
rtoes -38.3629
lfemur -26.3453 -8.88419 -7.23072
ltibia 12.5351
lfoot -9.31873 11.3915
ltoes -61.7302
172
root 9.81223 16.8287 23.5014 -169.382 5.29166 177.805
lowerback -3.75853 4.81515 -4.55831
upperback 2.12979 6.74232 -0.693203
thorax 3.8664 3.25351 2.26741
lowerneck -8.90198 0.197049 -3.28345
upperneck 28.3969 -1.69377 1.68291
head 10.5812 -1.68572 0.833763
rclavicle 1.25234e-014 -1.31198e-014
rhumerus -11.07 -8.7687 -86.8045
rradius 22.6325
rwrist 15.3569
rhand -11.1369 -38.0841
rfingers 7.12502
rthumb 14.8887 -67.5291
lclavicle 1.25234e-014 -1.31198e-014
lhumerus -50.1853 29.5693 52.8462
lradius 9.40887
lwrist -45.9298
lhand -20.1112 -18.2168
lfingers 7.12502
lthumb 6.23247 11.6715
rfemur 0.609315 11.6742 10.053
rtibia 11.9852
rfoot -24.7003 -5.37037
rtoes -38.4553
lfemur -26.0194 -9.23931 -6.95119
ltibia 13.0565
lfoot -10.1576 12.2131
ltoes -61.0035
173
root 9.6898 16.7795 23.2947 -169.183 6.31938 178.279
lowerback -3.83888 5.04052 -5.57536
upperback 1.79933 7.10832 -1.03086
thorax 3.46804 3.43377 2.4795
lowerneck -8.97226 0.104867 -3.10582
upperneck 28.2002 -2.03021 2.40857
head 10.5362 -1.7277 1.02513
rclavicle 4.28195e-014 1.71452e-015
rhumerus -11.9389 -7.69751 -87.331
rradius 23.3813
rwrist 14.7441
rhand -10.8353 -38.053
rfingers 7.12502
rthumb 15.1792 -67.4762
lclavicle 4.28195e-014 1.71452e-015
lhumerus -49.7751 29.2975 53.0165
lradius 8.33276
lwrist -44.8865
lhand -20.9533 -18.3522
lfingers 7.12502
lthumb 5.41943 11.5585
rfemur 0.679334 12.4506 10.0211
rtibia 12.3662
rfoot -24.9926 -5.08046
rtoes -38.6904
lfemur -25.793 -9.27923 -6.85868
ltibia 14.1931
lfoot -11.6722 12.6281
ltoes -60.8279
